<?xml version="1.0" encoding="UTF-8"?>
<svg id="BMW_i" xmlns="http://www.w3.org/2000/svg" version="1.1" viewBox="0 0 311.81 170.08">
  <!-- Generator: Adobe Illustrator 29.5.1, SVG Export Plug-In . SVG Version: 2.1.0 Build 141)  -->
  <defs>
    <style>
      .st0 {
        fill: #0066b1;
      }

      .st1 {
        fill: #d6d6d6;
      }
    </style>
  </defs>
  <path class="st1" d="M170.08,0l-99.21,170.08h115.68c16.13,0,31.05-8.57,39.18-22.5L311.81,0h-141.73ZM206.57,140.42c-4.57,7.84-12.96,12.66-22.04,12.66h-27.95l47.92-82.15c3.05-5.23,8.64-8.44,14.69-8.44h32.83l-45.46,77.93ZM248.94,51.02h-32.83l16.38-28.08h42.6l-11.46,19.64c-3.05,5.23-8.64,8.44-14.69,8.44Z"/>
  <g id="Blau_x5F_Verlauf_x5F_hell">
    <path class="st0" d="M170.08,0l-99.21,170.08H0L86.09,22.5C94.21,8.57,109.13,0,125.26,0h44.82Z"/>
  </g>
</svg>