<?xml version="1.0" encoding="UTF-8"?>
<svg id="Layer_1" xmlns="http://www.w3.org/2000/svg" version="1.1" viewBox="0 0 600 600">
  <!-- Generator: Adobe Illustrator 29.6.1, SVG Export Plug-In . SVG Version: 2.1.1 Build 9)  -->
  <defs>
    <style>
      .st0 {
        fill: none;
      }

      .st1 {
        fill: #fdfdfe;
      }

      .st2 {
        fill: #0166b0;
      }

      .st3 {
        fill: #707070;
      }
    </style>
  </defs>
  <g id="BMW_Logo">
    <path class="st3" d="M311.6,26.63l23.1,3.18c89.78,15.63,162.39,87.02,179.45,176.61l3.93,27.53v31.1l-3.93,26.05c-16.8,88.29-87.53,159.04-175.77,175.85l-26.78,3.94h-31.08l-26.78-3.94c-89.58-17.07-160.85-89.71-176.52-179.54l-3.18-22.37c.52-10.67-.7-21.99,0-32.58,7.14-107.74,98.06-198.69,205.74-205.84h31.82ZM279.62,41.66C149.52,49.91,61.1,181.13,96.45,305.94c46.18,163.07,260.8,204.2,364.19,69.36,109.93-143.37-1.56-345.02-181.02-333.64Z"/>
    <path class="st1" d="M518.08,265.05v205.84h-206.48l26.78-3.94c88.24-16.82,158.97-87.56,175.77-175.85l3.93-26.05Z"/>
    <path class="st1" d="M280.51,470.9H74.04v-205.84l3.18,22.37c15.67,89.83,86.94,162.47,176.52,179.54l26.78,3.94Z"/>
    <path class="st1" d="M311.6,26.63h206.48v207.32l-3.93-27.53c-17.06-89.59-89.67-160.98-179.45-176.61l-23.1-3.18Z"/>
    <path class="st1" d="M279.77,26.63c-107.68,7.15-198.6,98.1-205.74,205.84V26.63h205.74Z"/>
    <path class="st2" d="M296.06,116.97v131.8h-131.73c.34-72.6,59.08-131.62,131.73-131.8Z"/>
    <path class="st2" d="M420.39,248.76h7.4c-.18,72.59-59.19,131.62-131.73,131.8v-131.8h124.33Z"/>
    <path class="st3" d="M189.49,114c11.34-3.65,21.42,4.33,18.91,16.34-1.63,7.79-14.42,18.45-20.03,24.38-2.02,2.13-14.08,16.48-15.43,16.25l-36.41-33.96c-.82-.71-1.18-1.34-.95-2.46.25-1.21,12.75-15.88,14.67-17.97,4.41-4.81,15.28-16.5,21.08-18.16,11.21-3.21,19.52,4.12,18.17,15.58ZM174.49,108.95c-2.07.43-12.51,11.21-14.62,13.55-1.54,1.71-7.17,7.82-7.75,9.31-.34.88-.65,1.25-.04,2.2.38.58,7.38,6.86,8.22,4.49,3.35-6.05,19.67-17.97,20.3-24.19.38-3.75-2.47-6.11-6.11-5.35ZM191.53,122.28c-5.57.93-19.28,20.07-24.93,24.04-.11.62,7.42,9.99,8.85,6.59,4-5.34,9.25-9.54,13.68-14.45,1.39-1.54,6.91-7.65,7.35-8.93,1.39-4.03-.42-8-4.95-7.25Z"/>
    <path class="st3" d="M282.63,54.13l12.31,31.01,12.33-30.98c6.1-.31,12.28.74,18.34,1.39l2.25,54.02-13.32-1.48-1.85-37.03-11.55,26.22c-1.87,2.39-9.38.76-12.43,1.1l-11.55-26.57c-1.23.84-1.06,2.02-1.15,3.29-.81,10.51.07,22.33-.7,32.99l-13.32,1.48,2.2-53.53c.98-1.6,15.59-1.91,18.42-1.9Z"/>
    <path class="st3" d="M415.81,94.88c.5.86.11,1.96-.26,2.8l-17.35,26.69c1.01.97,21.92-11.73,25.37-11.75,1.51,1.44,8.68,7.6,8.55,9.02l-12.1,24.93,28.26-18.39c1.43-.15,7.12,8.07,8.35,9.82l-44.73,28.6c-1.13-2.94-9.33-9.62-9.1-12.11l13.14-26.05-26.32,12.98c-2.63.15-8.17-7.29-11.27-8.29l-.22-.97,27.46-43.74c1.07-.68,9.87,5.87,10.22,6.47Z"/>
    <path class="st3" d="M427.79,248.76h-7.4c.39-67.8-56.52-124.78-124.33-124.39v-7.4c72.26-.18,131.91,59.49,131.73,131.8Z"/>
    <path class="st3" d="M171.73,248.76c-.37,67.85,56.54,124.78,124.33,124.39v7.4c-72.13.18-132.07-59.55-131.73-131.8h7.4Z"/>
    <path class="st1" d="M420.39,248.76h-124.33v-124.39c67.81-.38,124.72,56.6,124.33,124.39Z"/>
    <path class="st1" d="M296.06,248.76v124.39c-67.79.39-124.7-56.54-124.33-124.39h124.33Z"/>
    <path class="st1" d="M191.53,122.28c4.53-.75,6.34,3.21,4.95,7.25-.44,1.28-5.97,7.39-7.35,8.93-4.43,4.92-9.68,9.11-13.68,14.45-1.43,3.4-8.96-5.97-8.85-6.59,5.65-3.97,19.36-23.11,24.93-24.04Z"/>
    <path class="st1" d="M174.49,108.95c3.64-.76,6.49,1.6,6.11,5.35-.63,6.22-16.94,18.14-20.3,24.19-.84,2.37-7.85-3.91-8.22-4.49-.61-.94-.31-1.31.04-2.2.58-1.48,6.21-7.6,7.75-9.31,2.11-2.34,12.55-13.12,14.62-13.55Z"/>
    <path class="st1" d="M279.62,41.66c179.46-11.38,290.95,190.27,181.02,333.64-103.39,134.84-318.01,93.7-364.19-69.36C61.1,181.13,149.52,49.91,279.62,41.66ZM282.63,54.13c-2.83,0-17.44.3-18.42,1.9l-2.2,53.53,13.32-1.48c.77-10.66-.11-22.49.7-32.99.1-1.27-.08-2.45,1.15-3.29l11.55,26.57c3.04-.33,10.55,1.29,12.43-1.1l11.55-26.22,1.85,37.03,13.32,1.48-2.25-54.02c-6.06-.65-12.25-1.7-18.34-1.39l-12.33,30.98-12.31-31.01ZM415.81,94.88c-.35-.6-9.16-7.15-10.22-6.47l-27.46,43.74.22.97c3.1,1,8.64,8.44,11.27,8.29l26.32-12.98-13.14,26.05c-.22,2.49,7.97,9.17,9.1,12.11l44.73-28.6c-1.23-1.75-6.92-9.96-8.35-9.82l-28.26,18.39,12.1-24.93c.13-1.42-7.04-7.58-8.55-9.02-3.46.01-24.36,12.72-25.37,11.75l17.35-26.69c.38-.83.77-1.93.26-2.8ZM189.49,114c1.34-11.46-6.96-18.8-18.17-15.58-5.79,1.66-16.66,13.35-21.08,18.16-1.92,2.1-14.43,16.76-14.67,17.97-.23,1.12.13,1.75.95,2.46l36.41,33.96c1.35.23,13.41-14.12,15.43-16.25,5.62-5.93,18.4-16.59,20.03-24.38,2.51-12-7.56-19.98-18.91-16.34ZM164.32,248.76c-.34,72.25,59.6,131.98,131.73,131.8,72.54-.18,131.55-59.21,131.73-131.8.18-72.31-59.47-131.98-131.73-131.8-72.65.18-131.39,59.2-131.73,131.8Z"/>
    <g>
      <rect class="st0" x="61.88" y="507.29" width="532" height="88"/>
      <path d="M67.06,561.58v-54.29h23.33c3.12,0,5.77.35,7.96,1.04,2.18.7,4.09,1.84,5.72,3.42,1.63,1.58,2.82,3.5,3.56,5.76.74,2.26,1.12,4.68,1.12,7.27,0,2.74-.38,5.27-1.15,7.6-.77,2.33-2.06,4.31-3.89,5.94-1.68,1.54-3.62,2.62-5.83,3.24-2.21.62-4.68.98-7.42,1.08-1.58.1-3.41.14-5.47.14h-7.13v18.79h-10.8ZM89.38,532.49c1.54-.1,2.84-.26,3.92-.5,1.08-.24,1.98-.7,2.7-1.37.72-.67,1.2-1.49,1.44-2.45.24-.96.36-2.06.36-3.31,0-1.34-.13-2.48-.4-3.42-.26-.94-.76-1.74-1.48-2.41-.67-.62-1.54-1.04-2.59-1.26-1.06-.22-2.42-.32-4.1-.32h-11.38v15.19h6.12c1.92,0,3.72-.05,5.4-.14Z"/>
      <path d="M116.16,561.58v-54.29h10.8v54.29h-10.8Z"/>
      <path d="M132.87,507.29h47.23v10.15h-18.22v44.14h-10.8v-44.14h-18.22v-10.15Z"/>
      <path d="M181.54,507.29h47.23v10.15h-18.22v44.14h-10.8v-44.14h-18.22v-10.15Z"/>
      <path d="M231.07,522.19c0-2.98.44-5.48,1.33-7.52.89-2.04,2.31-3.8,4.28-5.29,1.73-1.34,3.77-2.23,6.12-2.66,2.35-.43,4.99-.65,7.92-.65,1.58,0,3.29.11,5.11.32,1.82.22,3.64.48,5.44.79,1.8.31,3.53.64,5.18.97,1.66.34,3.08.65,4.28.94v10.37c-1.2-.29-2.68-.61-4.43-.97-1.75-.36-3.55-.71-5.4-1.04-1.85-.34-3.64-.62-5.36-.86-1.73-.24-3.19-.36-4.39-.36-1.87,0-3.38.08-4.54.25-1.15.17-2.11.54-2.88,1.12-.67.53-1.13,1.1-1.37,1.73-.24.62-.36,1.34-.36,2.16,0,.96.11,1.75.32,2.38.22.62.61,1.15,1.19,1.58.67.48,1.43.88,2.27,1.19.84.31,2,.71,3.49,1.19l9.36,2.95c2.02.67,3.79,1.31,5.33,1.91,1.54.6,2.86,1.38,3.96,2.34,1.44,1.25,2.56,2.84,3.35,4.79.79,1.94,1.19,4.09,1.19,6.44,0,5.28-1.82,9.36-5.47,12.24-1.92,1.54-4.15,2.64-6.7,3.31-2.54.67-5.83,1.01-9.86,1.01-1.49,0-3.08-.08-4.79-.25-1.7-.17-3.38-.37-5.04-.61-1.66-.24-3.26-.49-4.82-.76-1.56-.26-2.96-.51-4.21-.76v-10.51c1.44.29,3,.59,4.68.9,1.68.31,3.38.61,5.11.9s3.44.52,5.15.68c1.7.17,3.3.25,4.79.25,2.11,0,3.78-.12,5-.36,1.22-.24,2.24-.62,3.06-1.15,1.44-.96,2.16-2.4,2.16-4.32,0-1.78-.5-3.07-1.51-3.89-.53-.43-1.42-.88-2.66-1.33-1.25-.46-2.64-.92-4.18-1.4l-9.29-2.95c-1.87-.62-3.46-1.22-4.75-1.8s-2.47-1.3-3.53-2.16c-3.02-2.54-4.54-6.24-4.54-11.09Z"/>
      <path d="M306.03,507.29c2.98,0,5.42.19,7.34.58,1.92.38,3.62,1.1,5.11,2.16,1.68,1.2,3.01,2.75,4,4.64.98,1.9,1.48,3.9,1.48,6.01,0,1.68-.22,3.16-.65,4.43-.43,1.27-1.03,2.56-1.8,3.85-.53.86-1.04,1.69-1.55,2.48s-.97,1.52-1.4,2.2c.81.62,1.57,1.25,2.27,1.87.7.62,1.38,1.37,2.05,2.23.67.91,1.22,2.05,1.65,3.42.43,1.37.65,2.82.65,4.36,0,2.59-.43,4.91-1.29,6.95-.87,2.04-2.21,3.76-4.03,5.15-1.68,1.34-3.74,2.34-6.19,2.99-2.45.65-5.62.97-9.5.97h-23.83v-54.29h25.7ZM309.91,529.25c.24-.38.53-.84.86-1.37.33-.53.62-1.01.86-1.44.38-.67.72-1.36,1.01-2.05.29-.69.43-1.5.43-2.41s-.16-1.7-.47-2.38c-.31-.67-.8-1.2-1.48-1.58-.62-.34-1.44-.55-2.45-.65-1.01-.1-2.3-.14-3.89-.14h-13.68v12.02h18.79ZM291.12,539.18v12.46h13.25c2.3,0,4.04-.11,5.22-.32,1.18-.22,2.15-.66,2.92-1.33.67-.58,1.13-1.22,1.37-1.94.24-.72.36-1.56.36-2.52,0-2.5-.94-4.25-2.81-5.26-.82-.43-1.79-.72-2.92-.86-1.13-.14-2.6-.22-4.43-.22h-12.96Z"/>
      <path d="M344.04,507.29v33.39c0,2.45.13,4.47.4,6.06.26,1.59.95,2.88,2.05,3.89.91.82,2.11,1.36,3.6,1.62,1.49.26,3.07.4,4.75.4s3.24-.12,4.68-.36c1.44-.24,2.62-.77,3.53-1.59,1.1-.96,1.8-2.24,2.09-3.82.29-1.59.43-3.65.43-6.2v-33.39h10.8v33.12c0,4.08-.32,7.46-.97,10.15-.65,2.69-1.93,5.02-3.85,6.98-2.02,2.02-4.37,3.4-7.06,4.14-2.69.74-5.9,1.12-9.65,1.12-4.08,0-7.44-.37-10.08-1.12-2.64-.74-4.94-2.17-6.91-4.28-1.87-2.02-3.11-4.42-3.71-7.2-.6-2.78-.9-6.05-.9-9.79v-33.12h10.8Z"/>
      <path d="M386.59,561.58v-54.29h24.12c3.41,0,6.24.25,8.5.76,2.26.5,4.34,1.57,6.26,3.2,1.58,1.39,2.82,3.16,3.71,5.29.89,2.14,1.33,4.45,1.33,6.95s-.41,4.63-1.22,6.41c-.82,1.78-1.99,3.58-3.53,5.4-.82.96-1.74,1.99-2.77,3.1-1.03,1.1-1.88,1.99-2.56,2.66l12.74,20.52h-12.46l-11.52-18.65h-11.81v18.65h-10.8ZM397.39,517.44v15.34h17.28c.29-.33.7-.8,1.22-1.4.53-.6.98-1.16,1.37-1.69.72-.96,1.28-1.9,1.69-2.81.41-.91.61-2.04.61-3.38,0-1.06-.14-1.96-.43-2.7-.29-.74-.82-1.4-1.58-1.98-.67-.53-1.62-.89-2.84-1.08-1.22-.19-2.99-.29-5.29-.29h-12.02Z"/>
      <path d="M437.14,535.22c0-4.7.32-8.6.97-11.7.65-3.1,1.72-5.84,3.2-8.24.82-1.25,1.74-2.44,2.77-3.56,1.03-1.13,2.29-2.11,3.78-2.95,1.49-.84,3.23-1.5,5.22-1.98,1.99-.48,4.31-.72,6.95-.72,2.93,0,5.98.32,9.14.97s6.17,1.31,9,1.98v10.3c-1.58-.38-3.3-.77-5.15-1.15-1.85-.38-3.71-.74-5.58-1.08-2.3-.38-4.34-.58-6.12-.58-3.17,0-5.59.42-7.27,1.26-1.68.84-3,2.24-3.96,4.2-.77,1.53-1.3,3.32-1.58,5.35-.29,2.04-.43,4.59-.43,7.65s.13,5.59.4,7.73c.26,2.13.83,3.96,1.69,5.5.96,1.72,2.36,2.9,4.21,3.52,1.85.62,4.28.93,7.31.93,1.68,0,3.2-.05,4.57-.14,1.37-.1,2.41-.19,3.13-.29v-19.87h10.66v28.64c-1.3.19-2.78.4-4.46.62-1.68.22-3.42.41-5.22.58-1.8.17-3.61.31-5.44.43-1.83.12-3.53.18-5.11.18-2.74,0-5.11-.2-7.13-.61-2.02-.41-3.76-.98-5.22-1.73-1.46-.74-2.7-1.63-3.71-2.66-1.01-1.03-1.9-2.15-2.66-3.35-1.39-2.21-2.4-4.85-3.02-7.92-.62-3.07-.94-6.84-.94-11.3Z"/>
      <path d="M501.07,507.29v20.74h21.74v-20.74h10.8v54.29h-10.8v-23.26h-21.74v23.26h-10.8v-54.29h10.8Z"/>
    </g>
  </g>
</svg>