<?xml version="1.0" encoding="UTF-8"?>
<svg id="Layer_1" xmlns="http://www.w3.org/2000/svg" version="1.1" viewBox="0 0 200 80">
  <!-- Generator: Adobe Illustrator 29.6.1, SVG Export Plug-In . SVG Version: 2.1.1 Build 9)  -->
  <defs>
    <style>
      .st0 {
        fill: #1c69d4;
      }

      .st1 {
        isolation: isolate;
      }

      .st2 {
        fill: #fff;
        stroke: #1c69d4;
        stroke-width: 3px;
      }
    </style>
  </defs>
  <rect class="st2" x="10" y="10" width="180" height="60" rx="10" ry="10"/>
  <g class="st1">
    <path class="st0" d="M24.19,29.39h6.87c1.36,0,2.37.06,3.04.17s1.27.35,1.79.71.97.84,1.32,1.44.53,1.27.53,2.01c0,.8-.22,1.54-.65,2.21s-1.02,1.18-1.76,1.51c1.05.3,1.85.82,2.41,1.56s.84,1.6.84,2.59c0,.78-.18,1.54-.54,2.28s-.86,1.33-1.49,1.77-1.4.71-2.33.81c-.58.06-1.97.1-4.18.12h-5.85v-17.18ZM27.65,32.25v3.97h2.27c1.35,0,2.19-.02,2.52-.06.59-.07,1.06-.28,1.4-.62s.51-.79.51-1.34-.15-.96-.44-1.29-.73-.53-1.31-.6c-.34-.04-1.33-.06-2.96-.06h-1.99ZM27.65,39.08v4.59h3.21c1.25,0,2.04-.04,2.38-.11.52-.09.94-.32,1.26-.69s.49-.85.49-1.46c0-.52-.12-.95-.38-1.31s-.61-.62-1.08-.79-1.5-.25-3.08-.25h-2.8Z"/>
    <path class="st0" d="M41.6,46.57v-17.04h3.47v14.14h8.62v2.89h-12.09Z"/>
    <path class="st0" d="M55.46,38.08c0-1.75.26-3.22.79-4.41.39-.88.92-1.66,1.6-2.36s1.42-1.21,2.22-1.55c1.07-.45,2.3-.68,3.7-.68,2.53,0,4.56.79,6.08,2.36s2.28,3.75,2.28,6.55-.75,4.94-2.26,6.51-3.52,2.35-6.05,2.35-4.59-.78-6.09-2.34-2.26-3.71-2.26-6.44ZM59.04,37.96c0,1.95.45,3.42,1.35,4.42s2.04,1.51,3.42,1.51,2.52-.5,3.4-1.49,1.33-2.49,1.33-4.48-.43-3.44-1.29-4.41-2.01-1.45-3.44-1.45-2.58.49-3.46,1.47-1.31,2.46-1.31,4.44Z"/>
    <path class="st0" d="M74.13,38.08c0-1.75.26-3.22.79-4.41.39-.88.92-1.66,1.6-2.36s1.42-1.21,2.22-1.55c1.07-.45,2.3-.68,3.7-.68,2.53,0,4.56.79,6.08,2.36s2.28,3.75,2.28,6.55-.75,4.94-2.26,6.51-3.52,2.35-6.05,2.35-4.59-.78-6.09-2.34-2.26-3.71-2.26-6.44ZM77.71,37.96c0,1.95.45,3.42,1.35,4.42s2.04,1.51,3.42,1.51,2.52-.5,3.4-1.49,1.33-2.49,1.33-4.48-.43-3.44-1.29-4.41-2.01-1.45-3.44-1.45-2.58.49-3.46,1.47-1.31,2.46-1.31,4.44Z"/>
    <path class="st0" d="M93.46,46.57v-17.18h5.19l3.12,11.72,3.08-11.72h5.2v17.18h-3.22v-13.52l-3.41,13.52h-3.34l-3.4-13.52v13.52h-3.22Z"/>
    <path class="st0" d="M113.52,46.57v-17.18h11.78v2.91h-8.31v4.07h7.17v2.91h-7.17v7.3h-3.47Z"/>
    <path class="st0" d="M128.05,46.57v-17.18h3.47v17.18h-3.47Z"/>
    <path class="st0" d="M134.82,46.57v-17.18h12.74v2.91h-9.27v3.81h8.62v2.89h-8.62v4.68h9.6v2.89h-13.07Z"/>
    <path class="st0" d="M150.92,46.57v-17.04h3.47v14.14h8.62v2.89h-12.09Z"/>
    <path class="st0" d="M165.48,29.39h6.34c1.43,0,2.52.11,3.27.33,1.01.3,1.87.82,2.59,1.58s1.27,1.69,1.64,2.78.56,2.45.56,4.06c0,1.41-.18,2.63-.53,3.66-.43,1.25-1.04,2.26-1.84,3.04-.6.59-1.41,1.04-2.44,1.37-.77.24-1.79.36-3.07.36h-6.53v-17.18ZM168.95,32.29v11.38h2.59c.97,0,1.67-.05,2.1-.16.56-.14,1.03-.38,1.4-.71s.67-.89.91-1.66.35-1.82.35-3.15-.12-2.35-.35-3.06-.56-1.27-.98-1.66-.96-.67-1.61-.81c-.48-.11-1.43-.16-2.85-.16h-1.56Z"/>
  </g>
</svg>