<?xml version="1.0" encoding="UTF-8"?>
<svg id="Layer_1" xmlns="http://www.w3.org/2000/svg" version="1.1" viewBox="0 0 200 80">
  <!-- Generator: Adobe Illustrator 29.6.1, SVG Export Plug-In . SVG Version: 2.1.1 Build 9)  -->
  <defs>
    <style>
      .st0 {
        fill: #1c69d4;
      }

      .st1 {
        isolation: isolate;
      }

      .st2 {
        fill: #fff;
        stroke: #1c69d4;
        stroke-width: 3px;
      }
    </style>
  </defs>
  <rect class="st2" x="10" y="10" width="180" height="60" rx="10" ry="10"/>
  <g class="st1">
    <g class="st1">
      <path class="st0" d="M29.05,30.02h6.34c1.43,0,2.52.11,3.27.33,1.01.3,1.87.82,2.59,1.58s1.27,1.69,1.64,2.78.56,2.45.56,4.06c0,1.41-.18,2.63-.53,3.66-.43,1.25-1.04,2.26-1.84,3.04-.6.59-1.41,1.04-2.44,1.37-.77.24-1.79.36-3.07.36h-6.53v-17.18ZM32.52,32.93v11.38h2.59c.97,0,1.67-.05,2.1-.16.56-.14,1.03-.38,1.4-.71s.67-.89.91-1.66.35-1.82.35-3.15-.12-2.35-.35-3.06-.56-1.27-.98-1.66-.96-.67-1.61-.81c-.48-.11-1.43-.16-2.85-.16h-1.56Z"/>
      <path class="st0" d="M45.7,38.72c0-1.75.26-3.22.79-4.41.39-.88.92-1.66,1.6-2.36s1.42-1.21,2.22-1.55c1.07-.45,2.3-.68,3.7-.68,2.53,0,4.56.79,6.08,2.36s2.28,3.75,2.28,6.55-.75,4.94-2.26,6.51-3.52,2.35-6.05,2.35-4.59-.78-6.09-2.34-2.26-3.71-2.26-6.44ZM49.27,38.6c0,1.95.45,3.42,1.35,4.42s2.04,1.51,3.42,1.51,2.52-.5,3.4-1.49,1.33-2.49,1.33-4.48-.43-3.44-1.29-4.41-2.01-1.45-3.44-1.45-2.58.49-3.46,1.47-1.31,2.46-1.31,4.44Z"/>
      <path class="st0" d="M67.5,47.2l-4.1-17.18h3.55l2.59,11.8,3.14-11.8h4.12l3.01,12,2.64-12h3.49l-4.17,17.18h-3.68l-3.42-12.84-3.41,12.84h-3.76Z"/>
      <path class="st0" d="M87.75,47.2v-17.18h3.38l7.03,11.47v-11.47h3.22v17.18h-3.48l-6.93-11.2v11.2h-3.22Z"/>
      <path class="st0" d="M108.92,47.2v-14.27h-5.1v-2.91h13.65v2.91h-5.09v14.27h-3.47Z"/>
      <path class="st0" d="M118.57,38.72c0-1.75.26-3.22.79-4.41.39-.88.92-1.66,1.6-2.36s1.42-1.21,2.22-1.55c1.07-.45,2.3-.68,3.7-.68,2.53,0,4.56.79,6.08,2.36s2.28,3.75,2.28,6.55-.75,4.94-2.26,6.51-3.52,2.35-6.05,2.35-4.59-.78-6.09-2.34-2.26-3.71-2.26-6.44ZM122.15,38.6c0,1.95.45,3.42,1.35,4.42s2.04,1.51,3.42,1.51,2.52-.5,3.4-1.49,1.33-2.49,1.33-4.48-.43-3.44-1.29-4.41-2.01-1.45-3.44-1.45-2.58.49-3.46,1.47-1.31,2.46-1.31,4.44Z"/>
      <path class="st0" d="M140.38,47.2l-4.1-17.18h3.55l2.59,11.8,3.14-11.8h4.12l3.01,12,2.64-12h3.49l-4.17,17.18h-3.68l-3.42-12.84-3.41,12.84h-3.76Z"/>
      <path class="st0" d="M160.63,47.2v-17.18h3.38l7.03,11.47v-11.47h3.22v17.18h-3.48l-6.93-11.2v11.2h-3.22Z"/>
    </g>
  </g>
</svg>