<?xml version="1.0" encoding="UTF-8"?>
<svg id="Layer_1" xmlns="http://www.w3.org/2000/svg" version="1.1" viewBox="0 0 200 80">
  <!-- Generator: Adobe Illustrator 29.6.1, SVG Export Plug-In . SVG Version: 2.1.1 Build 9)  -->
  <defs>
    <style>
      .st0 {
        fill: #1c69d4;
      }

      .st1 {
        isolation: isolate;
      }

      .st2 {
        fill: #fff;
        stroke: #1c69d4;
        stroke-width: 3px;
      }
    </style>
  </defs>
  <rect class="st2" x="10" y="10" width="180" height="60" rx="10" ry="10"/>
  <g class="st1">
    <g class="st1">
      <path class="st0" d="M17.52,48v-14.2h2.89v11.79h7.19v2.41h-10.08Z"/>
      <path class="st0" d="M42.57,48h-3.14l-1.25-3.25h-5.72l-1.18,3.25h-3.07l5.58-14.32h3.06l5.73,14.32ZM37.24,42.34l-1.97-5.31-1.93,5.31h3.91Z"/>
      <path class="st0" d="M45.03,48l-3.42-14.32h2.96l2.16,9.83,2.62-9.83h3.44l2.51,10,2.2-10h2.91l-3.48,14.32h-3.07l-2.85-10.7-2.84,10.7h-3.13Z"/>
      <path class="st0" d="M61.88,48v-14.32h6.08c1.53,0,2.64.13,3.33.39s1.25.71,1.67,1.37.62,1.41.62,2.26c0,1.07-.32,1.96-.95,2.66s-1.58,1.14-2.83,1.32c.62.36,1.14.76,1.55,1.2s.96,1.21,1.65,2.32l1.75,2.79h-3.46l-2.09-3.12c-.74-1.11-1.25-1.81-1.52-2.1s-.56-.49-.87-.6-.79-.16-1.46-.16h-.59v5.98h-2.89ZM64.77,39.74h2.14c1.39,0,2.25-.06,2.6-.18s.62-.32.81-.61.29-.64.29-1.07c0-.48-.13-.87-.39-1.17s-.62-.48-1.09-.56c-.23-.03-.94-.05-2.11-.05h-2.26v3.63Z"/>
      <path class="st0" d="M76.32,48v-14.32h10.62v2.42h-7.72v3.17h7.19v2.41h-7.19v3.9h8v2.41h-10.89Z"/>
      <path class="st0" d="M89.68,48v-14.32h2.81l5.86,9.56v-9.56h2.69v14.32h-2.9l-5.77-9.34v9.34h-2.69Z"/>
      <path class="st0" d="M113.26,42.74l2.8.89c-.43,1.56-1.14,2.72-2.14,3.48s-2.27,1.14-3.8,1.14c-1.9,0-3.46-.65-4.69-1.95s-1.84-3.07-1.84-5.33c0-2.38.62-4.23,1.85-5.55s2.85-1.98,4.85-1.98c1.75,0,3.17.52,4.27,1.55.65.61,1.14,1.49,1.46,2.64l-2.86.68c-.17-.74-.52-1.33-1.06-1.76s-1.19-.64-1.96-.64c-1.06,0-1.92.38-2.58,1.14s-.99,2-.99,3.7c0,1.81.33,3.1.98,3.87s1.5,1.15,2.54,1.15c.77,0,1.43-.24,1.98-.73s.95-1.26,1.19-2.3Z"/>
      <path class="st0" d="M118.54,48v-14.32h10.62v2.42h-7.72v3.17h7.19v2.41h-7.19v3.9h8v2.41h-10.89Z"/>
      <path class="st0" d="M135.53,48l-5.12-14.32h3.13l3.62,10.6,3.51-10.6h3.07l-5.13,14.32h-3.09Z"/>
      <path class="st0" d="M145.13,48v-14.32h2.89v14.32h-2.89Z"/>
      <path class="st0" d="M150.86,48v-14.2h2.89v11.79h7.19v2.41h-10.08Z"/>
      <path class="st0" d="M163.07,48v-14.2h2.89v11.79h7.19v2.41h-10.08Z"/>
      <path class="st0" d="M175.21,48v-14.32h10.62v2.42h-7.72v3.17h7.19v2.41h-7.19v3.9h8v2.41h-10.89Z"/>
    </g>
  </g>
</svg>