<?xml version="1.0" encoding="UTF-8"?>
<svg id="Layer_1" xmlns="http://www.w3.org/2000/svg" version="1.1" viewBox="0 0 200 80">
  <!-- Generator: Adobe Illustrator 29.6.1, SVG Export Plug-In . SVG Version: 2.1.1 Build 9)  -->
  <defs>
    <style>
      .st0 {
        fill: #1c69d4;
      }

      .st1 {
        isolation: isolate;
      }

      .st2 {
        fill: #fff;
        stroke: #1c69d4;
        stroke-width: 3px;
      }
    </style>
  </defs>
  <rect class="st2" x="10" y="10" width="180" height="60" rx="10" ry="10"/>
  <g class="st1">
    <g class="st1">
      <path class="st0" d="M31.69,42.31l3.38-.33c.2,1.13.62,1.96,1.24,2.5s1.46.8,2.51.8c1.12,0,1.96-.24,2.53-.71s.85-1.03.85-1.66c0-.41-.12-.75-.36-1.04s-.65-.53-1.25-.74c-.41-.14-1.33-.39-2.78-.75-1.86-.46-3.16-1.03-3.91-1.7-1.05-.95-1.58-2.1-1.58-3.46,0-.88.25-1.69.74-2.46s1.21-1.34,2.14-1.74,2.06-.6,3.38-.6c2.16,0,3.78.47,4.87,1.42s1.66,2.21,1.72,3.79l-3.47.15c-.15-.88-.47-1.52-.96-1.9s-1.22-.58-2.2-.58-1.8.21-2.37.62c-.37.27-.55.62-.55,1.07,0,.41.17.75.52,1.04.44.37,1.5.75,3.19,1.15s2.94.81,3.74,1.24,1.44,1.01,1.9,1.75.69,1.65.69,2.74c0,.98-.27,1.91-.82,2.77s-1.32,1.5-2.32,1.92-2.25.63-3.74.63c-2.17,0-3.84-.5-5-1.51s-1.86-2.47-2.09-4.39Z"/>
      <path class="st0" d="M48.59,47.9v-17.18h3.47v6.76h6.8v-6.76h3.47v17.18h-3.47v-7.51h-6.8v7.51h-3.47Z"/>
      <path class="st0" d="M81.4,47.9h-3.77l-1.5-3.9h-6.87l-1.42,3.9h-3.68l6.69-17.18h3.67l6.88,17.18ZM75.02,41.11l-2.37-6.38-2.32,6.38h4.69Z"/>
      <path class="st0" d="M83.23,30.72h6.34c1.43,0,2.52.11,3.27.33,1.01.3,1.87.82,2.59,1.58s1.27,1.69,1.64,2.78.56,2.45.56,4.06c0,1.41-.18,2.63-.53,3.66-.43,1.25-1.04,2.26-1.84,3.04-.6.59-1.41,1.04-2.44,1.37-.77.24-1.79.36-3.07.36h-6.53v-17.18ZM86.7,33.63v11.38h2.59c.97,0,1.67-.05,2.1-.16.56-.14,1.03-.38,1.4-.71s.67-.89.91-1.66.35-1.82.35-3.15-.12-2.35-.35-3.06-.56-1.27-.98-1.66-.96-.67-1.61-.81c-.48-.11-1.43-.16-2.85-.16h-1.56Z"/>
      <path class="st0" d="M105.09,47.9v-7.23l-6.29-9.95h4.07l4.04,6.8,3.96-6.8h4l-6.32,9.97v7.21h-3.46Z"/>
      <path class="st0" d="M115.71,42.31l3.38-.33c.2,1.13.62,1.96,1.24,2.5s1.46.8,2.51.8c1.12,0,1.96-.24,2.53-.71s.85-1.03.85-1.66c0-.41-.12-.75-.36-1.04s-.65-.53-1.25-.74c-.41-.14-1.33-.39-2.78-.75-1.86-.46-3.16-1.03-3.91-1.7-1.05-.95-1.58-2.1-1.58-3.46,0-.88.25-1.69.74-2.46s1.21-1.34,2.14-1.74,2.06-.6,3.38-.6c2.16,0,3.78.47,4.87,1.42s1.66,2.21,1.72,3.79l-3.47.15c-.15-.88-.47-1.52-.96-1.9s-1.22-.58-2.2-.58-1.8.21-2.37.62c-.37.27-.55.62-.55,1.07,0,.41.17.75.52,1.04.44.37,1.5.75,3.19,1.15s2.94.81,3.74,1.24,1.44,1.01,1.9,1.75.69,1.65.69,2.74c0,.98-.27,1.91-.82,2.77s-1.32,1.5-2.32,1.92-2.25.63-3.74.63c-2.17,0-3.84-.5-5-1.51s-1.86-2.47-2.09-4.39Z"/>
      <path class="st0" d="M132.49,47.9v-17.18h3.47v17.18h-3.47Z"/>
      <path class="st0" d="M139.25,30.72h6.34c1.43,0,2.52.11,3.27.33,1.01.3,1.87.82,2.59,1.58s1.27,1.69,1.64,2.78.56,2.45.56,4.06c0,1.41-.18,2.63-.53,3.66-.43,1.25-1.04,2.26-1.84,3.04-.6.59-1.41,1.04-2.44,1.37-.77.24-1.79.36-3.07.36h-6.53v-17.18ZM142.72,33.63v11.38h2.59c.97,0,1.67-.05,2.1-.16.56-.14,1.03-.38,1.4-.71s.67-.89.91-1.66.35-1.82.35-3.15-.12-2.35-.35-3.06-.56-1.27-.98-1.66-.96-.67-1.61-.81c-.48-.11-1.43-.16-2.85-.16h-1.56Z"/>
      <path class="st0" d="M156.59,47.9v-17.18h12.74v2.91h-9.27v3.81h8.62v2.89h-8.62v4.68h9.6v2.89h-13.07Z"/>
    </g>
  </g>
</svg>