<?xml version="1.0" encoding="UTF-8"?>
<svg id="Layer_1" xmlns="http://www.w3.org/2000/svg" version="1.1" viewBox="0 0 200 80">
  <!-- Generator: Adobe Illustrator 29.6.1, SVG Export Plug-In . SVG Version: 2.1.1 Build 9)  -->
  <defs>
    <style>
      .st0 {
        fill: #4caf50;
      }

      .st1 {
        isolation: isolate;
      }

      .st2 {
        fill: #fff;
        stroke: #4caf50;
        stroke-width: 3px;
      }
    </style>
  </defs>
  <rect class="st2" x="10" y="10" width="180" height="60" rx="10" ry="10"/>
  <g class="st1">
    <g class="st1">
      <path class="st0" d="M23.27,41.36l2.81-.27c.17.94.51,1.64,1.03,2.08s1.22.66,2.09.66c.93,0,1.63-.2,2.1-.59s.71-.85.71-1.38c0-.34-.1-.63-.3-.86s-.55-.44-1.04-.62c-.34-.12-1.11-.33-2.31-.62-1.55-.38-2.64-.86-3.26-1.42-.88-.79-1.32-1.75-1.32-2.88,0-.73.21-1.41.62-2.05s1.01-1.12,1.79-1.45,1.72-.5,2.82-.5c1.8,0,3.15.39,4.06,1.18s1.39,1.84,1.43,3.15l-2.89.13c-.12-.74-.39-1.26-.8-1.59s-1.02-.48-1.83-.48-1.5.17-1.97.52c-.31.22-.46.52-.46.89,0,.34.14.63.43.87.36.31,1.25.62,2.66.96s2.45.68,3.12,1.03,1.2.84,1.58,1.46.57,1.38.57,2.28c0,.82-.23,1.59-.68,2.3s-1.1,1.25-1.93,1.6-1.87.52-3.12.52c-1.81,0-3.2-.42-4.17-1.25s-1.55-2.06-1.74-3.66Z"/>
      <path class="st0" d="M40.56,46.02v-11.89h-4.25v-2.42h11.38v2.42h-4.24v11.89h-2.89Z"/>
      <path class="st0" d="M49.57,46.02v-14.32h6.08c1.53,0,2.64.13,3.33.39s1.25.71,1.67,1.37.62,1.41.62,2.26c0,1.07-.32,1.96-.95,2.66s-1.58,1.14-2.83,1.32c.62.36,1.14.76,1.55,1.2s.96,1.21,1.65,2.32l1.75,2.79h-3.46l-2.09-3.12c-.74-1.11-1.25-1.81-1.52-2.1s-.56-.49-.87-.6-.79-.16-1.46-.16h-.59v5.98h-2.89ZM52.46,37.76h2.14c1.39,0,2.25-.06,2.6-.18s.62-.32.81-.61.29-.64.29-1.07c0-.48-.13-.87-.39-1.17s-.62-.48-1.09-.56c-.23-.03-.94-.05-2.11-.05h-2.26v3.63Z"/>
      <path class="st0" d="M63.91,46.02v-14.32h2.89v14.32h-2.89Z"/>
      <path class="st0" d="M69.56,46.02v-14.32h4.64c1.76,0,2.9.07,3.44.21.82.21,1.51.68,2.06,1.4s.83,1.65.83,2.79c0,.88-.16,1.62-.48,2.22s-.72,1.07-1.22,1.41-.99.57-1.5.68c-.69.14-1.69.21-3,.21h-1.88v5.4h-2.89ZM72.45,34.13v4.06h1.58c1.14,0,1.9-.08,2.29-.22s.69-.38.9-.7.33-.69.33-1.11c0-.52-.15-.95-.46-1.29s-.69-.55-1.16-.63c-.35-.07-1.04-.1-2.08-.1h-1.4Z"/>
      <path class="st0" d="M88.08,31.71h5.28c1.19,0,2.1.09,2.72.27.84.25,1.56.69,2.16,1.32s1.05,1.4,1.37,2.32.47,2.04.47,3.38c0,1.18-.15,2.19-.44,3.05-.36,1.04-.87,1.88-1.53,2.53-.5.49-1.18.87-2.03,1.14-.64.2-1.49.3-2.56.3h-5.44v-14.32ZM90.97,34.13v9.48h2.16c.81,0,1.39-.05,1.75-.14.47-.12.86-.32,1.17-.6s.56-.74.76-1.38.29-1.52.29-2.62-.1-1.96-.29-2.55-.47-1.05-.82-1.39-.8-.56-1.34-.67c-.4-.09-1.19-.14-2.37-.14h-1.3Z"/>
      <path class="st0" d="M102.45,46.02v-14.32h2.89v14.32h-2.89Z"/>
      <path class="st0" d="M107.36,41.36l2.81-.27c.17.94.51,1.64,1.03,2.08s1.21.66,2.09.66c.93,0,1.63-.2,2.11-.59.47-.39.71-.85.71-1.38,0-.34-.1-.63-.3-.86-.2-.24-.55-.44-1.04-.62-.34-.12-1.11-.33-2.31-.62-1.55-.38-2.64-.86-3.26-1.42-.88-.79-1.32-1.75-1.32-2.88,0-.73.21-1.41.62-2.05.41-.63,1.01-1.12,1.79-1.45.78-.33,1.72-.5,2.82-.5,1.8,0,3.15.39,4.06,1.18s1.38,1.84,1.43,3.15l-2.89.13c-.12-.74-.39-1.26-.79-1.59-.41-.32-1.02-.48-1.83-.48s-1.5.17-1.97.52c-.31.22-.46.52-.46.89,0,.34.14.63.43.87.37.31,1.25.62,2.66.96s2.45.68,3.12,1.03,1.2.84,1.58,1.46.57,1.38.57,2.28c0,.82-.23,1.59-.68,2.3-.46.72-1.1,1.25-1.93,1.6-.83.35-1.87.52-3.12.52-1.81,0-3.2-.42-4.17-1.25-.97-.84-1.55-2.06-1.74-3.66Z"/>
      <path class="st0" d="M124.65,46.02v-11.89h-4.25v-2.42h11.38v2.42h-4.24v11.89h-2.89Z"/>
      <path class="st0" d="M133.66,46.02v-14.32h6.08c1.53,0,2.64.13,3.34.39s1.25.71,1.66,1.37c.42.66.62,1.41.62,2.26,0,1.07-.32,1.96-.95,2.66-.63.7-1.58,1.14-2.83,1.32.62.36,1.14.76,1.55,1.2.41.44.96,1.21,1.64,2.32l1.75,2.79h-3.46l-2.09-3.12c-.74-1.11-1.25-1.81-1.52-2.1s-.56-.49-.87-.6c-.31-.11-.79-.16-1.46-.16h-.59v5.98h-2.89ZM136.55,37.76h2.14c1.39,0,2.25-.06,2.6-.18.35-.12.62-.32.81-.61s.29-.64.29-1.07c0-.48-.13-.87-.38-1.17-.26-.3-.62-.48-1.09-.56-.23-.03-.94-.05-2.11-.05h-2.26v3.63Z"/>
      <path class="st0" d="M148,46.02v-14.32h2.89v14.32h-2.89Z"/>
      <path class="st0" d="M162.81,40.76l2.8.89c-.43,1.56-1.14,2.72-2.14,3.48-1,.76-2.27,1.14-3.8,1.14-1.9,0-3.46-.65-4.69-1.95-1.22-1.3-1.84-3.07-1.84-5.33,0-2.38.62-4.23,1.85-5.55s2.85-1.98,4.85-1.98c1.75,0,3.17.52,4.27,1.55.65.61,1.14,1.49,1.46,2.64l-2.86.68c-.17-.74-.52-1.33-1.06-1.76s-1.19-.64-1.96-.64c-1.06,0-1.92.38-2.58,1.14-.66.76-.99,2-.99,3.7,0,1.81.33,3.1.98,3.87.65.77,1.5,1.15,2.54,1.15.77,0,1.43-.24,1.98-.73.55-.49.95-1.26,1.19-2.3Z"/>
      <path class="st0" d="M171.31,46.02v-11.89h-4.25v-2.42h11.38v2.42h-4.24v11.89h-2.89Z"/>
    </g>
  </g>
</svg>